<svg xmlns="http://www.w3.org/2000/svg" xmlns:xlink="http://www.w3.org/1999/xlink" width="512" height="512" viewBox="0 0 512 512"><defs><radialGradient id="radial-gradient" cx="503.25" cy="4.04" r="588.71" gradientUnits="userSpaceOnUse"><stop offset="0" stop-color="#ecf6f7"/><stop offset="0.26" stop-color="#e3f1f2"/><stop offset="0.67" stop-color="#cce5e6"/><stop offset="1" stop-color="#b5d9d9"/></radialGradient><linearGradient id="linear-gradient" x1="20" y1="397.2" x2="492" y2="397.2" gradientUnits="userSpaceOnUse"><stop offset="0" stop-color="#dbeded"/><stop offset="1" stop-color="#e7f3f3"/></linearGradient><linearGradient id="linear-gradient-2" x1="75.01" y1="317.71" x2="75.01" y2="383.81" gradientUnits="userSpaceOnUse"><stop offset="0" stop-color="#008099" stop-opacity="0.5"/><stop offset="1" stop-color="#008099"/></linearGradient><linearGradient id="linear-gradient-3" x1="163.33" y1="353.15" x2="351.27" y2="353.15" xlink:href="#linear-gradient-2"/><linearGradient id="linear-gradient-4" x1="7.22" y1="288.76" x2="156.65" y2="151.76" gradientUnits="userSpaceOnUse"><stop offset="0" stop-color="#02a7a3"/><stop offset="1" stop-color="#0c7d87"/></linearGradient><linearGradient id="linear-gradient-5" x1="71.25" y1="314.91" x2="195.06" y2="288.04" gradientUnits="userSpaceOnUse"><stop offset="0" stop-color="#1f636c"/><stop offset="0.17" stop-color="#1c6b72"/><stop offset="0.42" stop-color="#127f84"/><stop offset="0.72" stop-color="#02a1a1"/><stop offset="0.74" stop-color="#01a4a3"/><stop offset="0.82" stop-color="#029fa0"/><stop offset="0.91" stop-color="#069196"/><stop offset="1" stop-color="#0c7d87"/></linearGradient><linearGradient id="linear-gradient-6" x1="184.77" y1="307.47" x2="185.99" y2="50.81" gradientUnits="userSpaceOnUse"><stop offset="0" stop-color="#387f82"/><stop offset="0.08" stop-color="#45898c"/><stop offset="0.35" stop-color="#6aa6aa"/><stop offset="0.61" stop-color="#85bbbf"/><stop offset="0.83" stop-color="#95c8cc"/><stop offset="1" stop-color="#9bccd1"/></linearGradient><linearGradient id="linear-gradient-7" x1="247.06" y1="213.63" x2="429.52" y2="142.14" gradientUnits="userSpaceOnUse"><stop offset="0" stop-color="#0c626a"/><stop offset="0.01" stop-color="#0d646c"/><stop offset="0.17" stop-color="#178187"/><stop offset="0.34" stop-color="#20989c"/><stop offset="0.52" stop-color="#25a8ab"/><stop offset="0.72" stop-color="#29b1b4"/><stop offset="1" stop-color="#2ab4b7"/></linearGradient><linearGradient id="linear-gradient-8" x1="347.24" y1="209.57" x2="347.24" y2="382.25" gradientUnits="userSpaceOnUse"><stop offset="0.03" stop-color="#1a5a63"/><stop offset="0.32" stop-color="#156c72"/><stop offset="0.68" stop-color="#117b7f"/><stop offset="0.98" stop-color="#108084"/></linearGradient><linearGradient id="linear-gradient-9" x1="389.16" y1="389.09" x2="435.78" y2="90.09" gradientUnits="userSpaceOnUse"><stop offset="0" stop-color="#107881"/><stop offset="0.09" stop-color="#278e95"/><stop offset="0.23" stop-color="#42a9ad"/><stop offset="0.37" stop-color="#58bfc0"/><stop offset="0.54" stop-color="#67cdcd"/><stop offset="0.72" stop-color="#70d6d5"/><stop offset="1" stop-color="#73d9d7"/></linearGradient><linearGradient id="linear-gradient-10" x1="433.53" y1="249.41" x2="340.85" y2="186.73" gradientUnits="userSpaceOnUse"><stop offset="0" stop-color="#236570"/><stop offset="0.14" stop-color="#1c737c"/><stop offset="0.48" stop-color="#0e8f95"/><stop offset="0.78" stop-color="#05a1a4"/><stop offset="1" stop-color="#02a7a9"/></linearGradient></defs><g id="_12_maya2" data-name="12 maya2"><g style="opacity:0.01"><path d="M512,0h0V512H0V0H512m0,0H0V512H512V0Z"/></g><rect id="frame" width="512" height="512" style="fill:#e7f3f3"/><rect id="background" x="20" y="20" width="472" height="472" style="fill:url(#radial-gradient)"/><path id="floor" d="M20,305.89c173-11.89,334.19,5.82,472,65V492H20Z" style="fill:url(#linear-gradient)"/><polygon id="shadow_1" data-name="shadow 1" points="66.87 317.71 80.28 383.81 83.15 376.05 83.03 322.19 66.87 317.71" style="opacity:0.1;fill:url(#linear-gradient-2)"/><polygon id="shadow_2" data-name="shadow 2" points="163.33 327.63 197 335.87 197 324.05 297.84 331.75 351.27 353.15 351.27 382.25 270.97 351.63 269.18 362.55 208.1 358.07 163.33 346.97 163.33 327.63" style="opacity:0.2;fill:url(#linear-gradient-3)"/><path id="letter_2" data-name="letter 2" d="M80.28,383.81V59.75l85.39,154.19S134.25,298.07,80.28,383.81Z" style="fill:url(#linear-gradient-4)"/><path id="letter_1" data-name="letter 1" d="M80.28,383.81s66.15,5.49,86.45-16.24L164.1,236.94c.18-9.67,7.38-12.51,7.38-12.51l-5.81-10.49S134.39,305.43,80.28,383.81Z" style="fill:url(#linear-gradient-5)"/><polygon id="letter_3" data-name="letter 3" points="80.28 59.75 181.84 49.84 290.37 320.91 225.36 319.5 80.28 59.75" style="fill:url(#linear-gradient-6)"/><polygon id="letter_4" data-name="letter 4" points="324.7 58.95 254.6 229.07 290.37 320.91 430.61 58.95 324.7 58.95" style="fill:url(#linear-gradient-7)"/><path d="M351.27,209.57V382.25l-5.61-13.61v-135s.06-7.7-2.45-9.32Z" style="fill:url(#linear-gradient-8)"/><path d="M431.28,73.25l-2.1,309H351.27C426.07,220.6,430.46,105.34,431.28,73.25Z" style="fill:url(#linear-gradient-9)"/><path d="M431.28,73.25c0,.26,0-.27,0,0-.82,32.09-9.27,151.51-80,309V209.57L430.61,59S431.28,65.05,431.28,73.25Z" style="fill:url(#linear-gradient-10)"/><polygon points="261.66 411 261.66 473 251.51 473 251.51 427.51 237.78 473 224.64 473 210.91 427.51 210.91 473 200.76 473 200.76 411 215.99 411 231.21 465.24 246.43 411 261.66 411" style="fill:#0aa"/><path d="M307.24,411H291.66l-19,62H284l4.6-15.79h21.78l4.6,15.79h11.28Zm-15.91,36.72,8.12-27.85,8.12,27.85Z" style="fill:#0aa"/><path d="M408.37,411H392.79l-19,62h11.29l4.6-15.79h21.78l4.6,15.79h11.28Zm-15.91,36.72,8.12-27.85,8.12,27.85Z" style="fill:#0aa"/><polygon points="376.28 411 356.04 448.34 356.04 473 344.4 473 344.4 448.34 324.16 411 336.07 411 350.22 439.66 364.37 411 376.28 411" style="fill:#0aa"/></g></svg>