<svg xmlns="http://www.w3.org/2000/svg" width="512" height="512" viewBox="0 0 512 512">
  <g id="artboard_3_twitter" data-name="artboard 3 twitter">
    <g style="opacity: 0.01">
      <path d="M512,0h0V512H0V0H512m0,0H0V512H512V0Z"/>
    </g>
    <path d="M160,462.453c192,0,297.6-158.482,297.6-294.782V154.985c22.4-15.845,41.6-34.86,54.4-57.053-19.2,9.507-38.4,12.676-60.8,15.855C473.6,101.1,489.6,78.918,496,56.724c-19.2,12.687-44.8,22.194-67.2,25.363C390.4,40.879,323.2,37.7,281.6,78.918c-28.8,25.352-38.4,63.391-32,98.26-83.2-3.169-160-41.207-214.4-107.767-28.8,47.545-12.8,107.767,32,139.468-16,0-32-6.348-48-12.686h0a102.555,102.555,0,0,0,83.2,101.429c-6.4,3.18-16,6.349-25.6,6.349-6.4,0-12.8,0-19.2-3.169,12.8,41.2,54.4,72.877,99.2,72.877-38.4,28.532-83.2,44.387-131.2,44.387H0C48,446.608,102.4,462.453,160,462.453Z" style="fill-rule: evenodd"/>
  </g>
</svg>
