<svg xmlns="http://www.w3.org/2000/svg" width="512" height="512" viewBox="0 0 512 512"><g id="_15_unity" data-name="15 unity"><g style="opacity:0.01"><path d="M512,0h0V512H0V0H512m0,0H0V512H512V0Z"/></g><polygon points="256 424.06 256 512 34.3 384 34.3 128 110.46 171.97 110.45 325.09 162.84 294.84 163.15 232.64 230.83 270.53 229.8 348.09 175.78 317.26 123.39 347.5 256 424.06" style="fill:#4d4d4d"/><polygon points="477.7 128 477.7 384 256 512 256 424.06 388.6 347.5 336.22 317.26 282.2 348.09 281.17 270.53 348.85 232.64 349.16 294.84 401.54 325.09 401.54 171.97 477.7 128"/><polygon points="268.94 95.41 268.94 155.9 322.65 187.27 256 226.94 189.35 187.27 243.06 155.9 243.06 95.41 110.46 171.97 34.3 128 256 0 477.7 128 401.54 171.97 268.94 95.41" style="fill:gray"/><polygon points="256 256 256 424.06 123.39 347.5 175.78 317.26 229.8 348.09 230.83 270.53 163.15 232.64 162.84 294.84 110.45 325.09 110.46 171.97 256 256" style="fill:#ebebeb"/><polygon points="348.85 232.64 281.17 270.53 282.2 348.09 336.22 317.26 388.6 347.5 256 424.06 256 256 401.54 171.97 401.54 325.09 349.16 294.84 348.85 232.64" style="fill:#d9d9d9"/><polygon points="401.54 171.97 256 256 110.46 171.97 243.06 95.41 243.06 155.9 189.35 187.27 256 226.94 322.65 187.27 268.94 155.9 268.94 95.41 401.54 171.97" style="fill:#fff"/></g></svg>