<svg xmlns="http://www.w3.org/2000/svg" width="512" height="512" viewBox="0 0 512 512">
  <g id="artboard_2_youtube" data-name="artboard 2 youtube">
    <g style="opacity: 0.01">
      <path d="M512,0h0V512H0V0H512m0,0H0V512H512V0Z"/>
    </g>
    <path d="M501.3,132.764A64.123,64.123,0,0,0,456.035,87.5C416.107,76.8,256,76.8,256,76.8S95.893,76.8,55.965,87.5A64.123,64.123,0,0,0,10.7,132.764C0,172.693,0,256,0,256s0,83.307,10.7,123.235A64.122,64.122,0,0,0,55.965,424.5C95.893,435.2,256,435.2,256,435.2s160.107,0,200.035-10.7A64.122,64.122,0,0,0,501.3,379.235C512,339.307,512,256,512,256S512,172.693,501.3,132.764ZM204.8,332.8V179.2L337.816,256Z"/>
  </g>
</svg>
